<svg width="35" height="35" viewBox="0 0 35 35" fill="none" xmlns="http://www.w3.org/2000/svg">
<g clip-path="url(#clip0_1320_329)">
<path d="M18.2018 22.6067C17.7741 23.0333 17.7741 23.7256 18.2018 24.1533C18.4151 24.3666 18.6951 24.4737 18.9751 24.4737C19.2551 24.4737 19.5351 24.3666 19.7484 24.1533L26.2091 17.5219L19.7484 10.8905C19.3218 10.4639 18.6295 10.4639 18.2018 10.8905C17.7741 11.317 17.7741 12.0105 18.2018 12.437L22.1579 16.3931H1.08789C0.484141 16.3931 -0.00585938 16.8831 -0.00585938 17.4869C-0.00585938 18.0906 0.484141 18.5806 1.08789 18.5806H22.2257L18.2018 22.6067ZM32.8176 0H13.1301C11.9215 0 10.9415 0.978906 10.9415 2.1875V12.0312H13.1443V3.52187C13.1443 2.79125 13.7371 2.19844 14.4677 2.19844H31.4449C32.1766 2.19844 32.7684 2.79125 32.7684 3.52187L32.8034 31.4912C32.8034 32.2219 32.2116 32.8147 31.4799 32.8147H14.4688C13.7382 32.8147 13.1454 32.2219 13.1454 31.4912V22.9337L10.9426 22.937V32.8136C10.9426 34.0222 11.9226 35.0011 13.1312 35.0011H32.8187C34.0273 35.0011 35.0062 34.0222 35.0062 32.8136V2.18859C35.0051 0.98 34.0262 0.00109375 32.8187 0.00109375L32.8176 0Z" fill="white"/>
</g>
<defs>
<clipPath id="clip0_1320_329">
<rect width="35" height="35" fill="white"/>
</clipPath>
</defs>
</svg>
